<?xml version="1.0"?>
<svg xmlns="http://www.w3.org/2000/svg" xmlns:xlink="http://www.w3.org/1999/xlink" xmlns:svgjs="http://svgjs.com/svgjs" version="1.1" width="512" height="512" x="0" y="0" viewBox="0 0 512 512" style="enable-background:new 0 0 512 512" xml:space="preserve" class=""><g>
<circle xmlns="http://www.w3.org/2000/svg" style="" cx="256" cy="256" r="256" fill="#c5457b" data-original="#f9eb97" class=""/>
<path xmlns="http://www.w3.org/2000/svg" style="" d="M501.198,329.751L311.919,140.472L200.916,251.15l14.014,14.015L117,395l115.956,115.956  C240.549,511.634,248.231,512,256,512C371.744,512,469.53,435.18,501.198,329.751z" fill="#19a598" data-original="#f1cb30" class=""/>
<path xmlns="http://www.w3.org/2000/svg" style="" d="M395,384.132c0-60.367-44.13-110.42-101.888-119.677c24.575-13.233,41.279-39.197,41.279-69.064  C334.391,152.097,299.294,117,256,117l-10.868,161.986L256,395h139V384.132z" fill="#76a6eb" data-original="#467bca" class=""/>
<path xmlns="http://www.w3.org/2000/svg" style="" d="M256,117c-43.294,0-78.391,35.097-78.391,78.391c0,29.867,16.705,55.831,41.279,69.064  C161.13,273.712,117,323.765,117,384.132V395h139V117L256,117z" fill="#246187" data-original="#68b7ea" class=""/>
<path xmlns="http://www.w3.org/2000/svg" style="" d="M308.416,203.536v-16.289h-18.808c-0.855-3.525-2.244-6.844-4.089-9.857l13.303-13.304  l-11.518-11.518l-13.303,13.304c-3.013-1.844-6.332-3.234-9.857-4.089v-18.808H256l-5.434,23.435L256,177.095  c10.089,0,18.297,8.208,18.297,18.297c0,10.089-8.208,18.296-18.297,18.297l-5.434,8.829l5.434,25.29h8.144V229  c3.526-0.855,6.844-2.244,9.857-4.089l13.303,13.304l11.518-11.518l-13.303-13.304c1.844-3.013,3.234-6.332,4.089-9.857H308.416z" fill="#d6e6fd" data-original="#d6e6fd" class=""/>
<path xmlns="http://www.w3.org/2000/svg" style="" d="M256,213.688c-10.089,0-18.297-8.208-18.297-18.297s8.208-18.297,18.297-18.297l0,0v-34.12h-8.145  v18.808c-3.525,0.854-6.844,2.244-9.857,4.089l-13.303-13.304l-11.518,11.518l13.303,13.304c-1.844,3.013-3.234,6.331-4.089,9.857  h-18.808v16.289h18.808c0.855,3.525,2.244,6.844,4.089,9.857l-13.303,13.304l11.518,11.518l13.303-13.304  c3.013,1.844,6.331,3.234,9.857,4.089v18.808H256V213.688L256,213.688z" fill="#f4f4ff" data-original="#f4f4ff" class=""/>
<g xmlns="http://www.w3.org/2000/svg">
</g>
<g xmlns="http://www.w3.org/2000/svg">
</g>
<g xmlns="http://www.w3.org/2000/svg">
</g>
<g xmlns="http://www.w3.org/2000/svg">
</g>
<g xmlns="http://www.w3.org/2000/svg">
</g>
<g xmlns="http://www.w3.org/2000/svg">
</g>
<g xmlns="http://www.w3.org/2000/svg">
</g>
<g xmlns="http://www.w3.org/2000/svg">
</g>
<g xmlns="http://www.w3.org/2000/svg">
</g>
<g xmlns="http://www.w3.org/2000/svg">
</g>
<g xmlns="http://www.w3.org/2000/svg">
</g>
<g xmlns="http://www.w3.org/2000/svg">
</g>
<g xmlns="http://www.w3.org/2000/svg">
</g>
<g xmlns="http://www.w3.org/2000/svg">
</g>
<g xmlns="http://www.w3.org/2000/svg">
</g>
</g></svg>
